<?xml version="1.0" encoding="UTF-8"?>
<svg xmlns="http://www.w3.org/2000/svg" xmlns:xlink="http://www.w3.org/1999/xlink" width="198pt" height="220pt" viewBox="0 0 198 220" version="1.1">
<g id="surface1">
<path style=" stroke:none;fill-rule:nonzero;fill:rgb(14.117647%,20.392157%,42.352941%);fill-opacity:1;" d="M 16.53125 124.644531 C 16.53125 114.910156 20.359375 109.511719 24.414062 103.796875 C 28.214844 98.445312 32.140625 92.910156 32.140625 84.691406 C 32.140625 61.734375 20.222656 44.761719 13.59375 37.097656 L 40.660156 7.886719 C 55.328125 16.546875 77.570312 24.492188 98.449219 24.492188 L 99.539062 24.492188 C 120.425781 24.492188 142.667969 16.542969 157.332031 7.886719 L 184.40625 37.097656 C 177.78125 44.753906 165.859375 61.726562 165.859375 84.691406 C 165.859375 92.90625 169.789062 98.441406 173.585938 103.796875 C 177.636719 109.507812 181.46875 114.90625 181.46875 124.640625 C 181.46875 128.605469 179.828125 133.078125 176.65625 137.949219 C 176.65625 137.957031 176.648438 137.964844 176.644531 137.972656 C 175.433594 139.8125 174.117188 141.585938 172.707031 143.28125 L 180.910156 142.59375 C 185.082031 136.550781 187.597656 130.484375 187.597656 124.640625 C 187.597656 103.46875 171.988281 98.675781 171.988281 84.691406 C 171.988281 55.925781 192.796875 37.148438 192.796875 37.148438 L 158.378906 0 C 144.769531 9.1875 120.957031 18.378906 99.542969 18.378906 L 98.453125 18.378906 C 77.042969 18.378906 53.226562 9.1875 39.617188 0 L 5.199219 37.15625 C 5.199219 37.15625 26.015625 55.9375 26.015625 84.695312 C 26.015625 98.679688 10.40625 103.480469 10.40625 124.648438 C 10.40625 130.496094 12.917969 136.558594 17.09375 142.597656 L 25.292969 143.289062 C 19.542969 136.324219 16.53125 130.015625 16.53125 124.644531 Z M 16.53125 124.644531 "/>
<path style=" stroke:none;fill-rule:nonzero;fill:rgb(14.117647%,20.392157%,42.352941%);fill-opacity:1;" d="M 99.753906 142.582031 C 100 142.433594 100.125 141.945312 100.128906 141.121094 L 100.128906 140.089844 C 100.128906 139.492188 100.015625 139.105469 99.777344 138.917969 C 99.546875 138.765625 99.277344 138.679688 99 138.667969 L 99 142.78125 C 99.261719 142.769531 99.519531 142.703125 99.753906 142.582031 Z M 99.753906 142.582031 "/>
<path style=" stroke:none;fill-rule:nonzero;fill:rgb(14.117647%,20.392157%,42.352941%);fill-opacity:1;" d="M 176.476562 124.644531 C 176.476562 116.496094 173.402344 112.160156 169.511719 106.675781 C 165.460938 100.964844 160.867188 94.492188 160.867188 84.691406 C 160.867188 63.238281 170.464844 46.757812 177.792969 37.304688 L 156.355469 14.164062 C 142.035156 21.894531 120.074219 29.476562 99 29.476562 L 99 34.511719 C 101.496094 36.519531 107.8125 40.617188 117.789062 40.617188 C 130.996094 40.617188 139.003906 34.757812 139.003906 34.757812 L 153.679688 46.34375 C 145.140625 46.613281 135.933594 41.285156 135.933594 41.285156 C 131.40625 44.480469 125.261719 47.277344 120.988281 47.277344 C 116.714844 47.277344 114.457031 46.476562 108.316406 44.746094 C 104.105469 43.558594 100.714844 45.253906 98.996094 46.433594 L 98.996094 70.160156 C 98.515625 70.136719 98.03125 70.121094 97.542969 70.121094 C 94.816406 70.117188 92.105469 70.535156 89.503906 71.363281 L 91.441406 74.90625 L 104.503906 74.90625 L 108.78125 80.851562 L 104.46875 87.515625 L 91.316406 87.515625 L 91.292969 87.59375 L 87.0625 100.304688 L 97.871094 108.140625 L 108.679688 100.304688 L 108.707031 100.320312 L 114.90625 103.824219 L 114.90625 111.867188 L 114.980469 103.824219 L 108.761719 100.304688 L 107.578125 96.75 L 104.53125 87.59375 L 104.507812 87.515625 L 108.820312 80.851562 L 104.597656 74.90625 L 106.386719 71.625 C 111.972656 73.605469 116.734375 77.386719 119.917969 82.375 L 116.832031 84.75 L 120.484375 97.335938 L 124.039062 97.523438 C 123.835938 103.476562 121.621094 109.183594 117.753906 113.714844 L 114.90625 111.871094 L 105.101562 118.761719 L 104.789062 122.046875 C 102.902344 122.582031 100.960938 122.90625 99 123.015625 L 99 135.460938 C 100.433594 135.5 101.476562 135.585938 102.109375 135.710938 C 102.992188 135.875 103.78125 136.363281 104.324219 137.078125 C 104.894531 137.808594 105.175781 138.972656 105.171875 140.570312 C 105.171875 142.03125 104.964844 143.007812 104.558594 143.511719 C 104.15625 144.011719 103.359375 144.308594 102.171875 144.40625 C 103.246094 144.648438 103.964844 144.972656 104.332031 145.375 C 104.644531 145.683594 104.882812 146.0625 105.019531 146.480469 C 105.109375 146.820312 105.152344 147.742188 105.148438 149.253906 L 105.136719 154.199219 L 100.09375 154.1875 L 100.109375 147.957031 C 100.109375 146.953125 100.023438 146.332031 99.851562 146.09375 C 99.722656 145.921875 99.4375 145.808594 99 145.761719 L 99 180.660156 C 101.898438 180.644531 104.785156 180.425781 107.652344 180.011719 C 119.402344 176.398438 126.390625 171.351562 129.632812 168.527344 L 125.792969 160.730469 L 167.605469 123.867188 L 173.238281 134.066406 C 175.359375 130.542969 176.476562 127.371094 176.476562 124.644531 Z M 143.042969 69 L 149.3125 69 L 149.3125 74.707031 L 143.042969 74.707031 Z M 118.851562 71.609375 C 118.324219 70.46875 118.066406 68.753906 118.074219 66.460938 L 118.074219 59.632812 C 118.074219 57.945312 118.152344 56.683594 118.3125 55.839844 C 118.472656 55 118.949219 54.1875 119.742188 53.410156 C 120.539062 52.628906 121.644531 52.015625 123.058594 51.566406 C 124.472656 51.121094 126.097656 50.898438 127.933594 50.894531 C 130.421875 50.894531 132.480469 51.242188 134.101562 51.9375 C 135.726562 52.628906 136.792969 53.492188 137.300781 54.523438 C 137.808594 55.558594 138.0625 57.164062 138.0625 59.347656 L 138.0625 61.566406 L 129.601562 61.566406 L 129.601562 57.503906 C 129.601562 56.324219 129.511719 55.585938 129.332031 55.292969 C 129.152344 55 128.75 54.851562 128.136719 54.851562 C 127.4375 54.851562 126.996094 55.03125 126.808594 55.386719 C 126.621094 55.746094 126.527344 56.515625 126.527344 57.699219 L 126.527344 68.5625 C 126.527344 69.703125 126.621094 70.441406 126.808594 70.785156 C 126.996094 71.132812 127.417969 71.304688 128.074219 71.304688 C 128.699219 71.304688 129.117188 71.132812 129.3125 70.785156 C 129.503906 70.4375 129.601562 69.625 129.601562 68.339844 L 129.601562 65.394531 L 138.0625 65.394531 L 138.0625 66.304688 C 138.0625 68.722656 137.824219 70.441406 137.351562 71.453125 C 136.875 72.464844 135.820312 73.351562 134.195312 74.113281 C 132.566406 74.875 130.558594 75.257812 128.175781 75.253906 C 125.695312 75.253906 123.652344 74.933594 122.046875 74.289062 C 120.4375 73.644531 119.371094 72.75 118.851562 71.609375 Z M 131.871094 143.789062 C 131.664062 144.585938 131.25 145.320312 130.667969 145.910156 C 129.964844 146.617188 129.136719 147.191406 128.230469 147.605469 C 127.226562 148.113281 126.136719 148.429688 125.015625 148.535156 C 123.996094 148.617188 123.140625 148.496094 122.457031 148.164062 C 121.820312 147.875 121.273438 147.414062 120.878906 146.835938 C 120.515625 146.277344 119.875 145.046875 118.949219 143.144531 L 114.109375 133.15625 L 119 130.796875 L 125.132812 143.453125 C 125.488281 144.1875 125.761719 144.636719 125.949219 144.800781 C 126.136719 144.964844 126.367188 144.980469 126.640625 144.847656 C 126.949219 144.691406 127.09375 144.488281 127.070312 144.226562 C 127.050781 143.964844 126.835938 143.402344 126.429688 142.5625 L 120.402344 130.125 L 125.292969 127.75 L 130.757812 139.027344 C 131.378906 140.308594 131.769531 141.226562 131.925781 141.792969 C 132.082031 142.359375 132.066406 143.023438 131.875 143.789062 Z M 146.765625 134.449219 L 133.046875 121.644531 L 136.757812 117.683594 L 147.730469 127.929688 L 149.984375 125.519531 L 152.730469 128.085938 Z M 146.765625 134.449219 "/>
<path style=" stroke:none;fill-rule:nonzero;fill:rgb(100%,100%,100%);fill-opacity:1;" d="M 74.503906 141.800781 C 75.175781 139.765625 76.0625 137.28125 77.164062 134.347656 C 75.113281 137.347656 73.664062 139.566406 72.820312 141 Z M 74.503906 141.800781 "/>
<path style=" stroke:none;fill-rule:nonzero;fill:rgb(100%,100%,100%);fill-opacity:1;" d="M 98.472656 142.804688 C 98.648438 142.804688 98.824219 142.796875 99 142.78125 L 99 138.667969 C 98.828125 138.648438 98.65625 138.636719 98.484375 138.636719 Z M 98.472656 142.804688 "/>
<path style=" stroke:none;fill-rule:nonzero;fill:rgb(100%,100%,100%);fill-opacity:1;" d="M 176.65625 137.957031 C 179.828125 133.085938 181.46875 128.609375 181.46875 124.648438 C 181.46875 114.914062 177.636719 109.515625 173.585938 103.800781 C 169.789062 98.449219 165.859375 92.914062 165.859375 84.695312 C 165.859375 61.734375 177.78125 44.761719 184.40625 37.105469 L 157.335938 7.886719 C 142.671875 16.542969 120.429688 24.492188 99.542969 24.492188 L 98.453125 24.492188 C 77.574219 24.492188 55.332031 16.546875 40.664062 7.886719 L 13.59375 37.097656 C 20.222656 44.761719 32.140625 61.734375 32.140625 84.695312 C 32.140625 92.914062 28.214844 98.449219 24.414062 103.800781 C 20.359375 109.515625 16.53125 114.914062 16.53125 124.648438 C 16.53125 130.015625 19.542969 136.324219 25.292969 143.289062 L 25.355469 143.289062 L 26.328125 141.527344 L 31.757812 131.703125 L 66.046875 161.929688 L 62.3125 169.523438 C 62.3125 169.523438 70.117188 179.246094 89.90625 185.070312 C 96.164062 185.882812 102.511719 185.816406 108.753906 184.875 C 128.058594 179.03125 135.691406 169.523438 135.691406 169.523438 L 131.960938 161.929688 L 166.238281 131.707031 L 172.644531 143.296875 L 172.699219 143.296875 C 174.109375 141.597656 175.425781 139.828125 176.636719 137.984375 C 176.644531 137.976562 176.652344 137.964844 176.65625 137.957031 Z M 74.433594 47.277344 C 70.164062 47.277344 64.027344 44.484375 59.488281 41.285156 C 59.488281 41.285156 50.285156 46.613281 41.746094 46.34375 L 56.421875 34.757812 C 56.421875 34.757812 64.425781 40.617188 77.632812 40.617188 C 90.84375 40.617188 97.644531 33.425781 97.644531 33.425781 L 97.644531 47.410156 C 97.644531 47.410156 93.242188 43.015625 87.105469 44.746094 C 80.972656 46.476562 78.703125 47.277344 74.433594 47.277344 Z M 78.601562 69.140625 L 78.601562 74.84375 L 72.335938 74.84375 L 72.335938 69.140625 Z M 70.71875 60.070312 L 70.71875 64.628906 L 62.050781 64.628906 L 62.050781 73.847656 L 55.117188 73.847656 L 55.117188 51.28125 L 72.199219 51.28125 L 72.199219 56.132812 L 62.050781 56.132812 L 62.050781 60.070312 Z M 61.273438 127.824219 L 58.710938 130.308594 L 56.378906 127.90625 L 50.71875 133.390625 L 46.9375 129.503906 L 60.417969 116.441406 L 66.820312 123.03125 L 64.125 125.644531 L 61.503906 122.945312 L 58.941406 125.417969 Z M 77.003906 150.410156 L 72.003906 148.023438 L 73.199219 144.855469 L 71.449219 144.019531 L 69.695312 146.917969 L 64.632812 144.5 L 75.242188 128.785156 L 82.320312 132.164062 Z M 167.601562 123.851562 L 125.792969 160.71875 L 129.628906 168.515625 C 126.390625 171.339844 119.402344 176.390625 107.652344 180.003906 C 104.785156 180.417969 101.894531 180.632812 99 180.652344 L 99 145.753906 C 98.820312 145.734375 98.644531 145.726562 98.464844 145.726562 L 98.441406 154.179688 L 93.011719 154.164062 L 93.0625 135.414062 L 96.90625 135.425781 C 97.683594 135.425781 98.375 135.4375 99 135.453125 L 99 123.007812 C 98.519531 123.035156 98.035156 123.050781 97.546875 123.050781 C 83.289062 123.046875 71.585938 111.789062 71.054688 97.566406 C 71.042969 97.238281 71.03125 96.914062 71.03125 96.585938 C 71.027344 89.5625 73.820312 82.828125 78.792969 77.863281 C 83.765625 72.898438 90.511719 70.113281 97.546875 70.117188 C 98.035156 70.117188 98.519531 70.132812 99 70.15625 L 99 46.433594 C 100.710938 45.253906 104.109375 43.558594 108.316406 44.746094 C 114.457031 46.476562 116.722656 47.277344 120.992188 47.277344 C 125.257812 47.277344 131.398438 44.484375 135.933594 41.285156 C 135.933594 41.285156 145.140625 46.613281 153.679688 46.34375 L 139.003906 34.757812 C 139.003906 34.757812 130.996094 40.617188 117.789062 40.617188 C 107.8125 40.617188 101.496094 36.519531 99 34.511719 L 99 29.476562 C 120.074219 29.476562 142.035156 21.894531 156.355469 14.164062 L 177.792969 37.308594 C 170.464844 46.765625 160.867188 63.242188 160.867188 84.695312 C 160.867188 94.496094 165.460938 100.972656 169.511719 106.679688 C 173.402344 112.164062 176.476562 116.5 176.476562 124.648438 C 176.476562 127.371094 175.359375 130.546875 173.238281 134.054688 Z M 167.601562 123.851562 "/>
<path style=" stroke:none;fill-rule:nonzero;fill:rgb(100%,100%,100%);fill-opacity:1;" d="M 47.636719 164 L 59.84375 162.503906 L 35.460938 139.457031 L 30.921875 149.71875 L 19.117188 150.316406 L 38.03125 172.296875 Z M 30.558594 156.714844 L 37.8125 150.601562 C 36.550781 150.449219 35.335938 150.023438 34.257812 149.351562 L 36.003906 147.878906 C 36.722656 148.289062 37.503906 148.578125 38.320312 148.726562 C 39.191406 148.933594 40.105469 148.882812 40.949219 148.582031 L 42.265625 150.132812 L 32.183594 158.636719 Z M 36.269531 163.828125 C 35.605469 163.046875 35.28125 162.234375 35.289062 161.398438 C 35.296875 160.566406 35.660156 159.730469 36.378906 158.894531 L 38.15625 160.578125 C 37.816406 160.945312 37.632812 161.300781 37.613281 161.644531 C 37.597656 162.011719 37.730469 162.367188 37.980469 162.632812 C 38.316406 163.03125 38.78125 163.214844 39.378906 163.183594 C 39.976562 163.15625 40.886719 162.695312 42.105469 161.800781 C 41.1875 161.816406 40.3125 161.410156 39.730469 160.699219 C 39.066406 159.925781 38.773438 158.898438 38.921875 157.890625 C 39.046875 156.804688 39.597656 155.851562 40.574219 155.027344 C 41.59375 154.167969 42.671875 153.78125 43.804688 153.859375 C 44.941406 153.9375 45.902344 154.441406 46.691406 155.378906 C 47.53125 156.332031 47.878906 157.628906 47.625 158.875 C 47.386719 160.191406 46.367188 161.609375 44.5625 163.128906 C 42.726562 164.675781 41.113281 165.449219 39.726562 165.457031 C 38.339844 165.460938 37.1875 164.921875 36.269531 163.828125 Z M 36.269531 163.828125 "/>
<path style=" stroke:none;fill-rule:nonzero;fill:rgb(100%,100%,100%);fill-opacity:1;" d="M 44.257812 159.699219 C 44.878906 159.179688 45.242188 158.632812 45.347656 158.054688 C 45.449219 157.476562 45.34375 157 45.027344 156.632812 C 44.738281 156.285156 44.308594 156.089844 43.855469 156.101562 C 43.375 156.101562 42.816406 156.371094 42.175781 156.910156 C 41.539062 157.449219 41.171875 157.980469 41.074219 158.5 C 40.984375 158.96875 41.109375 159.457031 41.414062 159.824219 C 41.71875 160.191406 42.175781 160.40625 42.65625 160.40625 C 43.15625 160.414062 43.691406 160.175781 44.257812 159.699219 Z M 44.257812 159.699219 "/>
<path style=" stroke:none;fill-rule:nonzero;fill:rgb(14.117647%,20.392157%,42.352941%);fill-opacity:1;" d="M 197.992188 141.164062 L 180.910156 142.597656 L 172.707031 143.289062 L 172.652344 143.289062 L 166.238281 131.707031 L 131.953125 161.9375 L 135.6875 169.527344 C 135.6875 169.527344 128.050781 179.035156 108.746094 184.878906 C 102.503906 185.824219 96.160156 185.890625 89.898438 185.078125 C 70.109375 179.253906 62.308594 169.527344 62.308594 169.527344 L 66.039062 161.9375 L 31.757812 131.707031 L 26.328125 141.535156 L 25.355469 143.296875 L 25.289062 143.296875 L 17.085938 142.605469 L 0.0078125 141.164062 C 12.183594 156.960938 23.035156 169.222656 32.664062 178.703125 L 24.203125 185.128906 C 40.019531 206.117188 67.457031 220 98.664062 220 C 130.320312 220 158.097656 205.71875 173.796875 184.222656 L 165.867188 178.1875 C 175.355469 168.78125 186.035156 156.679688 197.992188 141.164062 Z M 162.539062 139.453125 L 167.078125 149.714844 L 178.886719 150.3125 L 159.96875 172.296875 L 150.367188 164.007812 L 138.15625 162.507812 Z M 19.121094 150.320312 L 30.929688 149.722656 L 35.472656 139.460938 L 59.847656 162.507812 L 47.640625 164.003906 L 38.03125 172.296875 Z M 142.25 202.566406 C 142.269531 202.53125 142.296875 202.492188 142.3125 202.460938 C 142.480469 202.117188 142.542969 201.734375 142.488281 201.359375 C 142.382812 200.890625 142.199219 200.449219 141.9375 200.046875 L 141.578125 199.425781 L 139.3125 200.746094 L 140.039062 202 L 141.046875 201.414062 C 141.3125 201.871094 141.152344 202.382812 140.566406 202.949219 L 140.910156 203.257812 C 128.390625 209.675781 113.882812 213.195312 98.664062 213.195312 C 73.128906 213.195312 49.453125 203.226562 33.964844 186.242188 L 50.449219 173.710938 C 51.320312 174.589844 52.226562 175.4375 53.164062 176.253906 C 64.914062 186.53125 81.5 192.425781 98.65625 192.425781 C 115.816406 192.425781 132.402344 186.527344 144.152344 176.253906 C 145.378906 175.183594 146.546875 174.0625 147.664062 172.894531 L 164.117188 185.398438 C 158.027344 192.320312 150.601562 198.09375 142.25 202.566406 Z M 142.25 202.566406 "/>
<path style=" stroke:none;fill-rule:nonzero;fill:rgb(100%,100%,100%);fill-opacity:1;" d="M 159.96875 172.296875 L 178.882812 150.316406 L 167.074219 149.71875 L 162.535156 139.457031 L 138.15625 162.503906 L 150.367188 164 Z M 157.753906 150.335938 C 158.597656 149.386719 159.597656 148.941406 160.753906 149.007812 C 162.125 149.082031 163.742188 149.941406 165.609375 151.589844 C 167.472656 153.238281 168.523438 154.742188 168.765625 156.105469 C 168.964844 157.230469 168.640625 158.269531 167.796875 159.21875 C 167.023438 160.140625 165.847656 160.640625 164.644531 160.554688 C 163.390625 160.484375 161.816406 159.617188 159.929688 157.949219 C 158.078125 156.3125 157.03125 154.8125 156.789062 153.449219 C 156.585938 152.320312 156.910156 151.28125 157.753906 150.332031 Z M 150.363281 160.027344 C 150.433594 159.039062 150.863281 158.101562 151.644531 157.21875 C 152.507812 156.25 153.445312 155.71875 154.457031 155.628906 C 155.441406 155.527344 156.421875 155.851562 157.148438 156.523438 C 157.582031 156.90625 157.9375 157.367188 158.203125 157.878906 C 158.484375 158.46875 158.683594 159.097656 158.789062 159.742188 C 158.898438 160.519531 158.949219 161.300781 158.945312 162.085938 C 158.964844 163.164062 158.992188 163.859375 159.03125 164.175781 C 159.0625 164.460938 159.125 164.746094 159.214844 165.023438 L 162.527344 161.285156 L 164.28125 162.835938 L 158.425781 169.433594 C 157.824219 168.769531 157.375 167.984375 157.113281 167.125 C 156.839844 166.246094 156.679688 164.84375 156.636719 162.925781 C 156.59375 161.371094 156.523438 160.378906 156.410156 159.941406 C 156.285156 159.398438 156.003906 158.910156 155.601562 158.53125 C 155.179688 158.15625 154.757812 157.984375 154.332031 158.011719 C 153.90625 158.039062 153.515625 158.25 153.160156 158.648438 C 152.835938 158.980469 152.664062 159.433594 152.6875 159.898438 C 152.71875 160.339844 152.992188 160.824219 153.511719 161.34375 L 151.65625 163.050781 C 150.722656 162.019531 150.292969 161.011719 150.363281 160.023438 Z M 150.363281 160.027344 "/>
<path style=" stroke:none;fill-rule:nonzero;fill:rgb(100%,100%,100%);fill-opacity:1;" d="M 161.695312 156 C 162.851562 157.019531 163.695312 157.664062 164.230469 157.929688 C 164.765625 158.195312 165.183594 158.300781 165.472656 158.253906 C 165.765625 158.207031 166.035156 158.058594 166.230469 157.835938 C 166.429688 157.617188 166.542969 157.332031 166.550781 157.035156 C 166.566406 156.722656 166.425781 156.359375 166.136719 155.929688 C 165.769531 155.371094 165.007812 154.582031 163.855469 153.5625 C 162.703125 152.539062 161.859375 151.898438 161.320312 151.632812 C 160.789062 151.367188 160.367188 151.257812 160.066406 151.304688 C 159.773438 151.347656 159.507812 151.496094 159.3125 151.71875 C 159.113281 151.9375 158.996094 152.222656 158.988281 152.523438 C 158.972656 152.832031 159.113281 153.195312 159.402344 153.628906 C 159.777344 154.183594 160.542969 154.972656 161.695312 156 Z M 161.695312 156 "/>
<path style=" stroke:none;fill-rule:nonzero;fill:rgb(100%,100%,100%);fill-opacity:1;" d="M 64.539062 192.027344 C 63.589844 191.527344 62.667969 191.414062 61.773438 191.695312 C 60.882812 191.972656 60.121094 192.703125 59.496094 193.882812 C 58.882812 195.042969 58.714844 196.082031 58.996094 196.996094 C 59.273438 197.914062 59.875 198.613281 60.792969 199.097656 C 61.714844 199.582031 62.628906 199.683594 63.53125 199.402344 C 64.4375 199.117188 65.207031 198.378906 65.835938 197.191406 C 66.457031 196.011719 66.636719 194.984375 66.367188 194.105469 C 66.101562 193.226562 65.492188 192.53125 64.539062 192.027344 Z M 64.539062 192.027344 "/>
<path style=" stroke:none;fill-rule:nonzero;fill:rgb(100%,100%,100%);fill-opacity:1;" d="M 110.589844 204.355469 L 114.074219 203.800781 L 111.636719 199.824219 Z M 110.589844 204.355469 "/>
<path style=" stroke:none;fill-rule:nonzero;fill:rgb(100%,100%,100%);fill-opacity:1;" d="M 149.0625 186.453125 L 144.753906 184.652344 L 146.5625 188.933594 Z M 149.0625 186.453125 "/>
<path style=" stroke:none;fill-rule:nonzero;fill:rgb(100%,100%,100%);fill-opacity:1;" d="M 144.15625 176.265625 C 132.402344 186.542969 115.820312 192.4375 98.664062 192.4375 C 81.507812 192.4375 64.917969 186.539062 53.167969 176.265625 C 52.234375 175.449219 51.328125 174.601562 50.453125 173.722656 L 33.96875 186.25 C 49.457031 203.238281 73.132812 213.203125 98.667969 213.203125 C 113.886719 213.203125 128.394531 209.6875 140.914062 203.269531 L 140.570312 202.960938 C 141.160156 202.394531 141.320312 201.882812 141.050781 201.425781 L 140.046875 202.007812 L 139.316406 200.757812 L 141.585938 199.4375 L 141.945312 200.058594 C 142.203125 200.460938 142.390625 200.902344 142.496094 201.367188 C 142.546875 201.746094 142.484375 202.128906 142.320312 202.472656 C 142.304688 202.503906 142.273438 202.542969 142.257812 202.578125 C 150.605469 198.105469 158.03125 192.332031 164.128906 185.417969 L 147.675781 172.917969 C 146.558594 174.078125 145.386719 175.195312 144.15625 176.265625 Z M 55.03125 186.339844 C 54.902344 185.726562 54.578125 185.167969 54.109375 184.75 C 53.414062 184.089844 52.636719 183.78125 51.777344 183.816406 C 50.917969 183.855469 50.011719 184.375 49.058594 185.378906 C 48.050781 186.449219 47.542969 187.40625 47.539062 188.261719 C 47.535156 189.117188 47.875 189.867188 48.5625 190.515625 C 49.019531 190.972656 49.625 191.253906 50.273438 191.3125 C 50.90625 191.371094 51.59375 191.164062 52.339844 190.691406 L 53.679688 192.953125 C 52.527344 193.605469 51.410156 193.847656 50.332031 193.671875 C 49.25 193.5 48.207031 192.9375 47.203125 191.984375 C 45.957031 190.804688 45.296875 189.457031 45.214844 187.933594 C 45.136719 186.410156 45.726562 184.984375 46.988281 183.65625 C 48.320312 182.253906 49.757812 181.546875 51.300781 181.535156 C 52.84375 181.523438 54.273438 182.136719 55.585938 183.378906 C 56.734375 184.464844 57.378906 185.652344 57.515625 186.9375 C 57.601562 187.703125 57.429688 188.523438 57.003906 189.398438 L 54.742188 188.035156 C 55.042969 187.523438 55.148438 186.921875 55.035156 186.339844 Z M 68.191406 198.5 C 67.316406 200.152344 66.128906 201.183594 64.628906 201.59375 C 63.128906 202 61.542969 201.757812 59.863281 200.875 C 58.164062 199.976562 57.058594 198.800781 56.550781 197.335938 C 56.039062 195.875 56.21875 194.328125 57.082031 192.695312 C 57.632812 191.652344 58.273438 190.867188 59 190.339844 C 59.542969 189.949219 60.15625 189.664062 60.808594 189.496094 C 61.449219 189.320312 62.117188 189.269531 62.777344 189.351562 C 63.714844 189.484375 64.621094 189.789062 65.453125 190.246094 C 67.140625 191.132812 68.238281 192.3125 68.75 193.785156 C 69.265625 195.257812 69.078125 196.828125 68.195312 198.5 Z M 79.027344 207.75 L 76.515625 207.027344 L 73.601562 198.3125 L 71.503906 205.585938 L 69.171875 204.917969 L 72.386719 193.765625 L 74.828125 194.464844 L 77.765625 203.375 L 79.910156 195.921875 L 82.246094 196.59375 Z M 93.710938 201.417969 L 91.105469 201.222656 C 91.066406 200.617188 90.878906 200.164062 90.542969 199.863281 C 90.207031 199.558594 89.679688 199.367188 88.953125 199.28125 C 88.199219 199.195312 87.59375 199.265625 87.136719 199.492188 C 86.863281 199.609375 86.671875 199.863281 86.640625 200.160156 C 86.613281 200.445312 86.730469 200.722656 86.953125 200.90625 C 87.25 201.1875 88.011719 201.539062 89.242188 201.953125 C 90.472656 202.367188 91.375 202.75 91.945312 203.105469 C 92.484375 203.429688 92.929688 203.890625 93.226562 204.445312 C 93.816406 205.664062 93.605469 207.117188 92.695312 208.125 C 92.195312 208.667969 91.535156 209.046875 90.8125 209.210938 C 90.03125 209.402344 89.085938 209.433594 87.96875 209.308594 C 86.34375 209.117188 85.136719 208.636719 84.347656 207.863281 C 83.554688 207.085938 83.144531 206.046875 83.117188 204.738281 L 85.664062 204.8125 C 85.726562 205.585938 85.976562 206.183594 86.394531 206.59375 C 86.808594 207.003906 87.421875 207.253906 88.210938 207.347656 C 89.046875 207.441406 89.691406 207.359375 90.152344 207.089844 C 90.613281 206.820312 90.867188 206.46875 90.917969 206.050781 C 90.953125 205.792969 90.886719 205.53125 90.734375 205.324219 C 90.496094 205.054688 90.195312 204.84375 89.859375 204.714844 C 89.566406 204.585938 88.890625 204.339844 87.835938 203.972656 C 86.480469 203.5 85.546875 203.007812 85.039062 202.492188 C 84.320312 201.765625 84.019531 200.949219 84.125 200.035156 C 84.195312 199.4375 84.460938 198.882812 84.875 198.449219 C 85.34375 197.960938 85.949219 197.617188 86.613281 197.46875 C 87.457031 197.277344 88.328125 197.242188 89.1875 197.359375 C 90.800781 197.550781 91.976562 198.007812 92.714844 198.734375 C 93.445312 199.429688 93.816406 200.417969 93.714844 201.417969 Z M 102.355469 209.660156 L 99.746094 209.722656 L 99.511719 200.082031 L 95.679688 200.175781 L 95.628906 198.210938 L 105.902344 197.960938 L 105.949219 199.921875 L 102.121094 200.019531 Z M 116.738281 208.027344 L 115.210938 205.601562 L 110.101562 206.410156 L 109.464844 209.183594 L 106.730469 209.617188 L 109.871094 197.363281 L 112.597656 196.929688 L 119.539062 207.582031 Z M 129.738281 204.246094 L 122.324219 198.804688 L 124.8125 205.953125 L 122.523438 206.746094 L 118.707031 195.78125 L 121.109375 194.949219 L 128.652344 200.539062 L 126.105469 193.214844 L 128.398438 192.421875 L 132.210938 203.386719 Z M 138.839844 199.992188 L 133.972656 191.664062 L 130.65625 193.59375 L 129.667969 191.898438 L 138.53125 186.726562 L 139.523438 188.421875 L 136.226562 190.347656 L 141.097656 198.683594 Z M 153.699219 188.320312 L 151.035156 187.246094 L 147.375 190.886719 L 148.480469 193.507812 L 146.519531 195.457031 L 141.882812 183.6875 L 143.847656 181.742188 L 155.71875 186.320312 Z M 153.699219 188.320312 "/>
<path style=" stroke:none;fill-rule:nonzero;fill:rgb(14.117647%,20.392157%,42.352941%);fill-opacity:1;" d="M 40.949219 148.582031 C 40.105469 148.882812 39.191406 148.933594 38.320312 148.726562 C 37.503906 148.578125 36.722656 148.289062 36.003906 147.878906 L 34.257812 149.351562 C 35.335938 150.023438 36.550781 150.449219 37.8125 150.601562 L 30.558594 156.714844 L 32.183594 158.636719 L 42.265625 150.144531 Z M 40.949219 148.582031 "/>
<path style=" stroke:none;fill-rule:nonzero;fill:rgb(14.117647%,20.392157%,42.352941%);fill-opacity:1;" d="M 44.566406 163.128906 C 46.367188 161.609375 47.390625 160.191406 47.625 158.875 C 47.882812 157.628906 47.535156 156.332031 46.695312 155.378906 C 45.902344 154.445312 44.941406 153.941406 43.808594 153.859375 C 42.675781 153.777344 41.597656 154.164062 40.578125 155.027344 C 39.601562 155.851562 39.050781 156.808594 38.925781 157.890625 C 38.777344 158.898438 39.070312 159.925781 39.734375 160.699219 C 40.316406 161.410156 41.191406 161.816406 42.109375 161.800781 C 40.890625 162.695312 39.980469 163.15625 39.382812 163.183594 C 38.78125 163.214844 38.316406 163.03125 37.980469 162.632812 C 37.734375 162.367188 37.601562 162.011719 37.613281 161.644531 C 37.636719 161.300781 37.816406 160.945312 38.15625 160.578125 L 36.378906 158.894531 C 35.664062 159.730469 35.300781 160.5625 35.289062 161.398438 C 35.28125 162.238281 35.605469 163.046875 36.269531 163.828125 C 37.191406 164.917969 38.34375 165.460938 39.730469 165.453125 C 41.117188 165.449219 42.730469 164.671875 44.566406 163.128906 Z M 41.421875 159.839844 C 41.101562 159.472656 40.972656 158.976562 41.070312 158.5 C 41.15625 157.988281 41.523438 157.460938 42.171875 156.910156 C 42.820312 156.363281 43.382812 156.09375 43.851562 156.101562 C 44.300781 156.089844 44.734375 156.285156 45.023438 156.632812 C 45.332031 157.007812 45.441406 157.480469 45.34375 158.054688 C 45.246094 158.625 44.882812 159.175781 44.253906 159.699219 C 43.6875 160.175781 43.152344 160.414062 42.644531 160.40625 C 42.171875 160.410156 41.722656 160.203125 41.421875 159.839844 Z M 41.421875 159.839844 "/>
<path style=" stroke:none;fill-rule:nonzero;fill:rgb(14.117647%,20.392157%,42.352941%);fill-opacity:1;" d="M 153.515625 161.339844 C 152.996094 160.824219 152.722656 160.339844 152.691406 159.894531 C 152.667969 159.429688 152.839844 158.976562 153.167969 158.640625 C 153.519531 158.242188 153.910156 158.03125 154.335938 158.007812 C 154.761719 157.980469 155.183594 158.15625 155.605469 158.527344 C 156.007812 158.902344 156.292969 159.394531 156.414062 159.933594 C 156.527344 160.375 156.601562 161.371094 156.640625 162.921875 C 156.683594 164.839844 156.84375 166.242188 157.121094 167.121094 C 157.378906 167.976562 157.828125 168.765625 158.429688 169.429688 L 164.285156 162.832031 L 162.535156 161.28125 L 159.21875 165.015625 C 159.128906 164.742188 159.066406 164.457031 159.035156 164.167969 C 158.996094 163.851562 158.96875 163.15625 158.949219 162.082031 C 158.957031 161.296875 158.902344 160.515625 158.796875 159.738281 C 158.6875 159.09375 158.492188 158.464844 158.207031 157.875 C 157.945312 157.359375 157.585938 156.898438 157.152344 156.519531 C 156.425781 155.847656 155.445312 155.523438 154.464844 155.621094 C 153.449219 155.714844 152.511719 156.242188 151.648438 157.210938 C 150.867188 158.097656 150.4375 159.035156 150.367188 160.023438 C 150.296875 161.011719 150.730469 162.019531 151.667969 163.050781 Z M 153.515625 161.339844 "/>
<path style=" stroke:none;fill-rule:nonzero;fill:rgb(14.117647%,20.392157%,42.352941%);fill-opacity:1;" d="M 159.929688 157.945312 C 161.816406 159.617188 163.386719 160.484375 164.644531 160.546875 C 165.847656 160.632812 167.023438 160.136719 167.796875 159.214844 C 168.640625 158.261719 168.964844 157.222656 168.765625 156.097656 C 168.519531 154.738281 167.46875 153.230469 165.609375 151.585938 C 163.746094 149.9375 162.128906 149.078125 160.753906 149 C 159.597656 148.9375 158.597656 149.378906 157.753906 150.332031 C 156.914062 151.285156 156.589844 152.316406 156.789062 153.4375 C 157.03125 154.804688 158.078125 156.308594 159.929688 157.945312 Z M 159.316406 151.710938 C 159.511719 151.488281 159.78125 151.34375 160.074219 151.300781 C 160.375 151.25 160.792969 151.359375 161.328125 151.625 C 161.859375 151.890625 162.707031 152.535156 163.863281 153.554688 C 165.015625 154.574219 165.777344 155.367188 166.144531 155.921875 C 166.433594 156.351562 166.570312 156.722656 166.558594 157.027344 C 166.546875 157.324219 166.433594 157.609375 166.234375 157.832031 C 166.039062 158.054688 165.773438 158.199219 165.480469 158.246094 C 165.183594 158.296875 164.765625 158.1875 164.238281 157.921875 C 163.707031 157.65625 162.855469 157.015625 161.703125 155.992188 C 160.550781 154.972656 159.785156 154.179688 159.414062 153.621094 C 159.125 153.191406 158.988281 152.820312 159 152.515625 C 159.007812 152.21875 159.121094 151.933594 159.316406 151.710938 Z M 159.316406 151.710938 "/>
<path style=" stroke:none;fill-rule:nonzero;fill:rgb(14.117647%,20.392157%,42.352941%);fill-opacity:1;" d="M 57.003906 189.40625 C 57.429688 188.53125 57.601562 187.710938 57.515625 186.945312 C 57.378906 185.660156 56.734375 184.472656 55.585938 183.386719 C 54.273438 182.144531 52.84375 181.527344 51.300781 181.539062 C 49.757812 181.550781 48.320312 182.257812 46.988281 183.664062 C 45.730469 184.984375 45.140625 186.410156 45.214844 187.9375 C 45.292969 189.46875 45.953125 190.816406 47.203125 191.988281 C 48.207031 192.941406 49.25 193.507812 50.332031 193.679688 C 51.410156 193.851562 52.527344 193.613281 53.679688 192.957031 L 52.339844 190.699219 C 51.597656 191.167969 50.90625 191.375 50.273438 191.320312 C 49.625 191.257812 49.019531 190.976562 48.5625 190.523438 C 47.878906 189.875 47.539062 189.125 47.539062 188.269531 C 47.539062 187.410156 48.046875 186.449219 49.058594 185.386719 C 50.011719 184.382812 50.917969 183.863281 51.777344 183.824219 C 52.636719 183.785156 53.414062 184.09375 54.109375 184.753906 C 54.578125 185.175781 54.902344 185.730469 55.03125 186.347656 C 55.144531 186.929688 55.042969 187.527344 54.746094 188.039062 Z M 57.003906 189.40625 "/>
<path style=" stroke:none;fill-rule:nonzero;fill:rgb(14.117647%,20.392157%,42.352941%);fill-opacity:1;" d="M 65.453125 190.246094 C 64.621094 189.789062 63.714844 189.484375 62.777344 189.351562 C 62.117188 189.269531 61.449219 189.320312 60.808594 189.496094 C 60.160156 189.664062 59.546875 189.949219 59 190.339844 C 58.273438 190.867188 57.636719 191.652344 57.082031 192.695312 C 56.21875 194.332031 56.039062 195.878906 56.550781 197.335938 C 57.0625 198.796875 58.164062 199.976562 59.863281 200.875 C 61.542969 201.761719 63.132812 202 64.628906 201.59375 C 66.128906 201.183594 67.316406 200.152344 68.195312 198.5 C 69.078125 196.828125 69.265625 195.257812 68.75 193.785156 C 68.238281 192.316406 67.140625 191.136719 65.453125 190.246094 Z M 65.835938 197.191406 C 65.207031 198.378906 64.4375 199.117188 63.53125 199.402344 C 62.625 199.683594 61.714844 199.582031 60.792969 199.097656 C 59.875 198.613281 59.273438 197.914062 58.996094 196.996094 C 58.714844 196.082031 58.882812 195.042969 59.496094 193.882812 C 60.121094 192.703125 60.878906 191.972656 61.773438 191.695312 C 62.667969 191.414062 63.59375 191.527344 64.539062 192.027344 C 65.492188 192.53125 66.101562 193.222656 66.367188 194.105469 C 66.636719 194.984375 66.457031 196.015625 65.835938 197.191406 Z M 65.835938 197.191406 "/>
<path style=" stroke:none;fill-rule:nonzero;fill:rgb(14.117647%,20.392157%,42.352941%);fill-opacity:1;" d="M 77.765625 203.375 L 74.824219 194.464844 L 72.386719 193.765625 L 69.171875 204.917969 L 71.5 205.585938 L 73.597656 198.3125 L 76.507812 207.027344 L 79.027344 207.75 L 82.242188 196.59375 L 79.910156 195.925781 Z M 77.765625 203.375 "/>
<path style=" stroke:none;fill-rule:nonzero;fill:rgb(14.117647%,20.392157%,42.352941%);fill-opacity:1;" d="M 89.195312 197.355469 C 88.339844 197.234375 87.46875 197.273438 86.625 197.464844 C 85.960938 197.613281 85.355469 197.953125 84.886719 198.445312 C 84.472656 198.878906 84.207031 199.433594 84.136719 200.027344 C 84.03125 200.941406 84.335938 201.761719 85.046875 202.484375 C 85.554688 203.003906 86.488281 203.496094 87.847656 203.96875 C 88.898438 204.335938 89.574219 204.582031 89.867188 204.710938 C 90.207031 204.839844 90.507812 205.046875 90.746094 205.320312 C 90.898438 205.527344 90.964844 205.789062 90.929688 206.046875 C 90.878906 206.472656 90.617188 206.824219 90.164062 207.085938 C 89.710938 207.347656 89.058594 207.4375 88.222656 207.339844 C 87.433594 207.25 86.828125 207 86.402344 206.589844 C 85.984375 206.179688 85.738281 205.585938 85.675781 204.808594 L 83.128906 204.734375 C 83.144531 206.042969 83.550781 207.085938 84.34375 207.859375 C 85.136719 208.636719 86.34375 209.117188 87.964844 209.304688 C 89.082031 209.433594 90.03125 209.402344 90.808594 209.207031 C 91.535156 209.046875 92.191406 208.667969 92.691406 208.121094 C 93.601562 207.117188 93.8125 205.664062 93.226562 204.441406 C 92.925781 203.890625 92.484375 203.429688 91.941406 203.105469 C 91.371094 202.75 90.46875 202.367188 89.242188 201.949219 C 88.011719 201.535156 87.242188 201.1875 86.933594 200.90625 C 86.710938 200.722656 86.597656 200.445312 86.621094 200.160156 C 86.65625 199.863281 86.84375 199.609375 87.117188 199.492188 C 87.578125 199.261719 88.183594 199.191406 88.9375 199.28125 C 89.660156 199.367188 90.195312 199.558594 90.53125 199.863281 C 90.871094 200.164062 91.058594 200.617188 91.097656 201.222656 L 93.703125 201.417969 C 93.808594 200.417969 93.441406 199.425781 92.714844 198.730469 C 91.980469 198 90.808594 197.542969 89.195312 197.355469 Z M 89.195312 197.355469 "/>
<path style=" stroke:none;fill-rule:nonzero;fill:rgb(14.117647%,20.392157%,42.352941%);fill-opacity:1;" d="M 105.902344 197.964844 L 95.628906 198.214844 L 95.679688 200.175781 L 99.511719 200.082031 L 99.75 209.722656 L 102.355469 209.660156 L 102.121094 200.019531 L 105.949219 199.925781 Z M 105.902344 197.964844 "/>
<path style=" stroke:none;fill-rule:nonzero;fill:rgb(14.117647%,20.392157%,42.352941%);fill-opacity:1;" d="M 109.878906 197.363281 L 106.734375 209.617188 L 109.46875 209.183594 L 110.109375 206.410156 L 115.210938 205.601562 L 116.742188 208.027344 L 119.539062 207.582031 L 112.597656 196.929688 Z M 110.589844 204.347656 L 111.636719 199.820312 L 114.074219 203.792969 Z M 110.589844 204.347656 "/>
<path style=" stroke:none;fill-rule:nonzero;fill:rgb(14.117647%,20.392157%,42.352941%);fill-opacity:1;" d="M 126.109375 193.21875 L 128.65625 200.542969 L 121.109375 194.949219 L 118.710938 195.78125 L 122.523438 206.746094 L 124.816406 205.953125 L 122.328125 198.804688 L 129.738281 204.246094 L 132.210938 203.390625 L 128.398438 192.425781 Z M 126.109375 193.21875 "/>
<path style=" stroke:none;fill-rule:nonzero;fill:rgb(14.117647%,20.392157%,42.352941%);fill-opacity:1;" d="M 139.53125 188.421875 L 138.539062 186.726562 L 129.667969 191.898438 L 130.660156 193.59375 L 133.972656 191.664062 L 138.84375 199.992188 L 141.097656 198.675781 L 136.226562 190.347656 Z M 139.53125 188.421875 "/>
<path style=" stroke:none;fill-rule:nonzero;fill:rgb(14.117647%,20.392157%,42.352941%);fill-opacity:1;" d="M 141.882812 183.6875 L 146.523438 195.457031 L 148.484375 193.507812 L 147.375 190.886719 L 151.039062 187.246094 L 153.703125 188.320312 L 155.714844 186.320312 L 143.847656 181.742188 Z M 149.0625 186.453125 L 146.5625 188.9375 L 144.753906 184.65625 Z M 149.0625 186.453125 "/>
<path style=" stroke:none;fill-rule:nonzero;fill:rgb(14.117647%,20.392157%,42.352941%);fill-opacity:1;" d="M 64.125 125.644531 L 66.820312 123.03125 L 60.417969 116.441406 L 46.9375 129.503906 L 50.722656 133.390625 L 56.382812 127.90625 L 58.71875 130.308594 L 61.28125 127.824219 L 58.945312 125.421875 L 61.503906 122.945312 Z M 64.125 125.644531 "/>
<path style=" stroke:none;fill-rule:nonzero;fill:rgb(14.117647%,20.392157%,42.352941%);fill-opacity:1;" d="M 64.628906 144.5 L 69.691406 146.917969 L 71.441406 144.019531 L 73.195312 144.855469 L 72.003906 148.023438 L 77.003906 150.410156 L 82.316406 132.160156 L 75.234375 128.777344 Z M 74.503906 141.800781 L 72.820312 140.992188 C 73.664062 139.558594 75.113281 137.339844 77.164062 134.339844 C 76.0625 137.28125 75.175781 139.765625 74.503906 141.800781 Z M 74.503906 141.800781 "/>
<path style=" stroke:none;fill-rule:nonzero;fill:rgb(14.117647%,20.392157%,42.352941%);fill-opacity:1;" d="M 98.472656 142.804688 L 98.484375 138.636719 C 98.65625 138.636719 98.828125 138.648438 99 138.667969 L 99 135.453125 C 98.378906 135.4375 97.683594 135.425781 96.90625 135.425781 L 93.0625 135.414062 L 93.011719 154.164062 L 98.441406 154.179688 L 98.464844 145.722656 C 98.644531 145.722656 98.820312 145.734375 99 145.753906 L 99 142.78125 C 98.824219 142.796875 98.648438 142.804688 98.472656 142.804688 Z M 98.472656 142.804688 "/>
<path style=" stroke:none;fill-rule:nonzero;fill:rgb(14.117647%,20.392157%,42.352941%);fill-opacity:1;" d="M 72.199219 56.132812 L 72.199219 51.28125 L 55.117188 51.28125 L 55.117188 73.851562 L 62.054688 73.851562 L 62.054688 64.628906 L 70.71875 64.628906 L 70.71875 60.074219 L 62.054688 60.074219 L 62.054688 56.132812 Z M 72.199219 56.132812 "/>
<path style=" stroke:none;fill-rule:nonzero;fill:rgb(14.117647%,20.392157%,42.352941%);fill-opacity:1;" d="M 72.335938 69.140625 L 78.601562 69.140625 L 78.601562 74.84375 L 72.335938 74.84375 Z M 72.335938 69.140625 "/>
<path style=" stroke:none;fill-rule:nonzero;fill:rgb(100%,100%,100%);fill-opacity:1;" d="M 128.175781 75.253906 C 130.558594 75.253906 132.566406 74.875 134.195312 74.113281 C 135.820312 73.351562 136.875 72.464844 137.351562 71.453125 C 137.824219 70.441406 138.0625 68.722656 138.0625 66.304688 L 138.0625 65.394531 L 129.601562 65.394531 L 129.601562 68.332031 C 129.601562 69.617188 129.503906 70.429688 129.3125 70.777344 C 129.117188 71.125 128.703125 71.296875 128.074219 71.296875 C 127.417969 71.296875 126.996094 71.125 126.808594 70.777344 C 126.621094 70.429688 126.527344 69.691406 126.527344 68.554688 L 126.527344 57.691406 C 126.527344 56.507812 126.621094 55.734375 126.808594 55.378906 C 126.996094 55.023438 127.4375 54.847656 128.136719 54.84375 C 128.757812 54.84375 129.152344 54.992188 129.332031 55.285156 C 129.511719 55.574219 129.601562 56.316406 129.601562 57.496094 L 129.601562 61.558594 L 138.0625 61.558594 L 138.0625 59.347656 C 138.0625 57.164062 137.808594 55.554688 137.300781 54.523438 C 136.789062 53.492188 135.722656 52.628906 134.101562 51.9375 C 132.480469 51.242188 130.425781 50.894531 127.933594 50.894531 C 126.097656 50.894531 124.472656 51.121094 123.058594 51.566406 C 121.644531 52.015625 120.539062 52.628906 119.742188 53.410156 C 118.945312 54.1875 118.46875 55 118.304688 55.839844 C 118.144531 56.683594 118.0625 57.945312 118.066406 59.632812 L 118.066406 66.460938 C 118.066406 68.753906 118.324219 70.46875 118.84375 71.609375 C 119.359375 72.75 120.425781 73.640625 122.039062 74.289062 C 123.652344 74.933594 125.695312 75.253906 128.175781 75.253906 Z M 128.175781 75.253906 "/>
<path style=" stroke:none;fill-rule:nonzero;fill:rgb(100%,100%,100%);fill-opacity:1;" d="M 143.042969 69.003906 L 149.308594 69.003906 L 149.308594 74.710938 L 143.042969 74.710938 Z M 143.042969 69.003906 "/>
<path style=" stroke:none;fill-rule:nonzero;fill:rgb(14.117647%,20.392157%,42.352941%);fill-opacity:1;" d="M 97.644531 47.410156 L 97.644531 33.425781 C 97.644531 33.425781 90.84375 40.617188 77.632812 40.617188 C 64.425781 40.617188 56.421875 34.757812 56.421875 34.757812 L 41.746094 46.34375 C 50.285156 46.613281 59.488281 41.285156 59.488281 41.285156 C 64.027344 44.480469 70.164062 47.277344 74.433594 47.277344 C 78.699219 47.277344 80.964844 46.476562 87.105469 44.746094 C 93.25 43.015625 97.644531 47.410156 97.644531 47.410156 Z M 97.644531 47.410156 "/>
<path style=" stroke:none;fill-rule:nonzero;fill:rgb(14.117647%,20.392157%,42.352941%);fill-opacity:1;" d="M 90.640625 118.757812 L 97.894531 114.351562 L 105.101562 118.757812 L 97.871094 114.277344 Z M 90.640625 118.757812 "/>
<path style=" stroke:none;fill-rule:nonzero;fill:rgb(14.117647%,20.392157%,42.352941%);fill-opacity:1;" d="M 75.332031 97.332031 L 78.984375 84.75 L 79.117188 84.6875 L 75.492188 81.894531 C 72.574219 86.242188 71.023438 91.355469 71.03125 96.589844 C 71.03125 96.917969 71.042969 97.242188 71.054688 97.570312 L 75.339844 97.347656 Z M 75.332031 97.332031 "/>
<path style=" stroke:none;fill-rule:nonzero;fill:rgb(14.117647%,20.392157%,42.352941%);fill-opacity:1;" d="M 80.976562 111.960938 L 77.679688 114.105469 C 81.195312 118.082031 85.828125 120.914062 90.976562 122.230469 L 90.644531 118.757812 Z M 80.976562 111.960938 "/>
<path style=" stroke:none;fill-rule:nonzero;fill:rgb(100%,100%,100%);fill-opacity:1;" d="M 91.546875 87.09375 L 104.242188 87.09375 L 108.273438 80.863281 L 104.292969 75.332031 L 91.660156 75.332031 L 87.621094 81.023438 Z M 91.546875 87.09375 "/>
<path style=" stroke:none;fill-rule:nonzero;fill:rgb(100%,100%,100%);fill-opacity:1;" d="M 81.078125 103.203125 L 86.710938 100.019531 L 90.851562 87.574219 L 86.90625 81.476562 L 79.386719 85.128906 L 79.304688 85.167969 L 75.859375 97.042969 L 75.875 97.058594 Z M 81.078125 103.203125 "/>
<path style=" stroke:none;fill-rule:nonzero;fill:rgb(100%,100%,100%);fill-opacity:1;" d="M 116.476562 85.042969 L 108.964844 81.398438 L 104.964844 87.574219 L 107.972656 96.617188 L 109.105469 100.019531 L 114.882812 103.285156 L 120.011719 97.234375 Z M 116.476562 85.042969 "/>
<path style=" stroke:none;fill-rule:nonzero;fill:rgb(100%,100%,100%);fill-opacity:1;" d="M 81.476562 103.949219 L 81.550781 111.847656 L 90.65625 118.25 L 97.421875 114.054688 L 97.421875 108.339844 L 87.035156 100.808594 Z M 81.476562 103.949219 "/>
<path style=" stroke:none;fill-rule:nonzero;fill:rgb(14.117647%,20.392157%,42.352941%);fill-opacity:1;" d="M 90.640625 118.757812 L 97.871094 114.277344 L 105.101562 118.757812 L 114.90625 111.867188 L 114.90625 103.824219 L 108.703125 100.320312 L 108.675781 100.304688 L 97.867188 108.140625 L 87.058594 100.304688 L 91.285156 87.59375 L 91.3125 87.515625 L 104.46875 87.515625 L 108.78125 80.851562 L 104.503906 74.90625 L 91.441406 74.90625 L 89.507812 71.355469 C 83.777344 73.183594 78.835938 76.894531 75.492188 81.890625 L 79.117188 84.683594 L 78.984375 84.746094 L 75.332031 97.332031 L 75.339844 97.34375 L 71.054688 97.566406 C 71.273438 103.679688 73.617188 109.527344 77.679688 114.105469 L 80.976562 111.960938 Z M 98.269531 108.375 L 108.703125 100.808594 L 114.476562 104.066406 L 114.476562 111.640625 L 105.082031 118.246094 L 98.269531 114.027344 Z M 97.421875 108.339844 L 97.421875 114.054688 L 90.65625 118.246094 L 81.550781 111.84375 L 81.476562 103.945312 L 87.035156 100.804688 Z M 91.667969 75.332031 L 104.296875 75.332031 L 108.273438 80.871094 L 104.242188 87.097656 L 91.546875 87.097656 L 87.621094 81.027344 Z M 76.066406 81.800781 C 79.289062 77.148438 83.929688 73.664062 89.304688 71.867188 L 90.945312 74.875 L 86.941406 80.515625 L 86.871094 80.550781 L 79.253906 84.25 Z M 79.304688 85.171875 L 79.386719 85.132812 L 86.90625 81.484375 L 90.851562 87.578125 L 86.710938 100.023438 L 81.078125 103.207031 L 75.875 97.0625 L 75.859375 97.046875 Z M 77.757812 113.546875 C 74 109.191406 71.796875 103.710938 71.5 97.96875 L 75.363281 97.765625 L 80.632812 103.976562 L 80.703125 111.628906 Z M 77.757812 113.546875 "/>
<path style=" stroke:none;fill-rule:nonzero;fill:rgb(100%,100%,100%);fill-opacity:1;" d="M 114.480469 111.644531 L 114.480469 104.070312 L 108.707031 100.808594 L 98.269531 108.375 L 98.269531 114.027344 L 105.085938 118.25 Z M 114.480469 111.644531 "/>
<path style=" stroke:none;fill-rule:nonzero;fill:rgb(100%,100%,100%);fill-opacity:1;" d="M 91.089844 118.980469 L 91.363281 121.890625 C 93.390625 122.378906 95.464844 122.628906 97.546875 122.625 C 98.003906 122.625 98.480469 122.609375 98.976562 122.582031 C 100.808594 122.484375 102.625 122.191406 104.394531 121.710938 L 104.660156 118.980469 L 97.902344 114.847656 Z M 91.089844 118.980469 "/>
<path style=" stroke:none;fill-rule:nonzero;fill:rgb(14.117647%,20.392157%,42.352941%);fill-opacity:1;" d="M 105.101562 118.757812 L 97.894531 114.351562 L 90.640625 118.757812 L 90.976562 122.230469 C 93.125 122.777344 95.332031 123.050781 97.550781 123.050781 C 98.039062 123.050781 98.523438 123.035156 99.003906 123.007812 C 100.964844 122.902344 102.90625 122.578125 104.792969 122.042969 Z M 104.394531 121.707031 C 102.625 122.1875 100.808594 122.480469 98.976562 122.578125 C 98.484375 122.605469 98.003906 122.621094 97.546875 122.621094 C 95.464844 122.621094 93.386719 122.375 91.363281 121.882812 L 91.089844 118.972656 L 97.894531 114.839844 L 104.660156 118.980469 Z M 104.394531 121.707031 "/>
<path style=" stroke:none;fill-rule:nonzero;fill:rgb(100%,100%,100%);fill-opacity:1;" d="M 123.597656 97.917969 L 120.671875 97.765625 L 115.402344 103.972656 L 115.332031 111.628906 L 117.664062 113.144531 C 121.234375 108.835938 123.316406 103.492188 123.59375 97.910156 Z M 123.597656 97.917969 "/>
<path style=" stroke:none;fill-rule:nonzero;fill:rgb(14.117647%,20.392157%,42.352941%);fill-opacity:1;" d="M 124.039062 97.519531 L 120.484375 97.332031 L 116.832031 84.75 L 119.910156 82.378906 C 116.726562 77.390625 111.964844 73.609375 106.382812 71.628906 L 104.59375 74.910156 L 108.8125 80.855469 L 104.503906 87.515625 L 104.53125 87.59375 L 107.574219 96.75 L 108.757812 100.304688 L 114.976562 103.824219 L 114.902344 111.867188 L 117.75 113.710938 C 121.617188 109.179688 123.835938 103.46875 124.039062 97.519531 Z M 105.089844 74.878906 L 106.578125 72.148438 C 111.800781 74.085938 116.273438 77.632812 119.34375 82.277344 L 116.789062 84.25 L 109.101562 80.527344 Z M 114.886719 103.285156 L 109.105469 100.023438 L 107.976562 96.625 L 104.972656 87.574219 L 108.96875 81.398438 L 116.480469 85.046875 L 120.015625 97.234375 Z M 115.335938 111.636719 L 115.40625 103.980469 L 120.675781 97.773438 L 123.597656 97.929688 C 123.320312 103.511719 121.238281 108.851562 117.667969 113.15625 Z M 115.335938 111.636719 "/>
<path style=" stroke:none;fill-rule:nonzero;fill:rgb(100%,100%,100%);fill-opacity:1;" d="M 116.789062 84.25 L 119.351562 82.277344 C 116.28125 77.632812 111.808594 74.085938 106.585938 72.148438 L 105.097656 74.878906 L 109.101562 80.519531 Z M 116.789062 84.25 "/>
<path style=" stroke:none;fill-rule:nonzero;fill:rgb(100%,100%,100%);fill-opacity:1;" d="M 75.359375 97.765625 L 71.496094 97.96875 C 71.796875 103.710938 74 109.191406 77.757812 113.546875 L 80.703125 111.636719 L 80.632812 103.980469 Z M 75.359375 97.765625 "/>
<path style=" stroke:none;fill-rule:nonzero;fill:rgb(100%,100%,100%);fill-opacity:1;" d="M 86.871094 80.550781 L 86.941406 80.519531 L 90.945312 74.878906 L 89.304688 71.867188 C 83.929688 73.664062 79.289062 77.148438 76.066406 81.800781 L 79.253906 84.257812 Z M 86.871094 80.550781 "/>
<path style=" stroke:none;fill-rule:nonzero;fill:rgb(100%,100%,100%);fill-opacity:1;" d="M 99.847656 146.085938 C 100.023438 146.328125 100.113281 146.949219 100.109375 147.949219 L 100.089844 154.175781 L 105.132812 154.191406 L 105.148438 149.246094 C 105.152344 147.734375 105.109375 146.808594 105.019531 146.472656 C 104.878906 146.054688 104.644531 145.675781 104.332031 145.363281 C 103.964844 144.960938 103.246094 144.640625 102.167969 144.398438 C 103.355469 144.300781 104.152344 144.003906 104.558594 143.5 C 104.960938 143 105.167969 142.019531 105.171875 140.558594 C 105.171875 138.960938 104.890625 137.796875 104.324219 137.066406 C 103.78125 136.351562 102.992188 135.867188 102.109375 135.699219 C 101.476562 135.574219 100.433594 135.492188 99 135.449219 L 99 138.660156 C 99.273438 138.675781 99.542969 138.761719 99.777344 138.914062 C 100.011719 139.097656 100.128906 139.488281 100.125 140.085938 L 100.125 141.117188 C 100.125 141.945312 100.003906 142.429688 99.753906 142.578125 C 99.519531 142.699219 99.261719 142.765625 99 142.773438 L 99 145.753906 C 99.433594 145.800781 99.722656 145.910156 99.847656 146.085938 Z M 99.847656 146.085938 "/>
<path style=" stroke:none;fill-rule:nonzero;fill:rgb(100%,100%,100%);fill-opacity:1;" d="M 130.757812 139.03125 L 125.292969 127.75 L 120.402344 130.109375 L 126.429688 142.550781 C 126.835938 143.390625 127.050781 143.945312 127.070312 144.214844 C 127.09375 144.484375 126.945312 144.695312 126.640625 144.835938 C 126.367188 144.96875 126.136719 144.953125 125.949219 144.789062 C 125.761719 144.628906 125.480469 144.179688 125.132812 143.441406 L 119 130.789062 L 114.109375 133.152344 L 118.949219 143.136719 C 119.871094 145.042969 120.515625 146.273438 120.878906 146.832031 C 121.273438 147.410156 121.820312 147.871094 122.457031 148.160156 C 123.140625 148.488281 123.996094 148.613281 125.015625 148.53125 C 126.136719 148.425781 127.226562 148.109375 128.230469 147.601562 C 129.136719 147.1875 129.964844 146.613281 130.667969 145.910156 C 131.25 145.320312 131.664062 144.589844 131.875 143.789062 C 132.066406 143.023438 132.082031 142.359375 131.925781 141.796875 C 131.769531 141.234375 131.378906 140.3125 130.757812 139.03125 Z M 130.757812 139.03125 "/>
<path style=" stroke:none;fill-rule:nonzero;fill:rgb(100%,100%,100%);fill-opacity:1;" d="M 147.730469 127.929688 L 136.757812 117.6875 L 133.046875 121.644531 L 146.765625 134.449219 L 152.730469 128.085938 L 149.984375 125.519531 Z M 147.730469 127.929688 "/>
</g>
</svg>
